HIERARCHY
ROOT Root
{
	OFFSET 0.00000 0.00000 0.00000
	CHANNELS 6 Xposition Yposition Zposition Zrotation Xrotation Yrotation
	JOINT Hips
	{
		OFFSET 0 0 0	
		CHANNELS 3 Zrotation Xrotation Yrotation
		JOINT Spine
		{
			OFFSET 0 4 0	
			CHANNELS 3 Zrotation Xrotation Yrotation
			JOINT Spine1
			{
				OFFSET 0 19.4 0	
				CHANNELS 3 Zrotation Xrotation Yrotation
				JOINT Spine2
				{
					OFFSET 0 16.6 0	
					CHANNELS 3 Zrotation Xrotation Yrotation
					JOINT LeftCollar
					{
						OFFSET 0 10 0	
						CHANNELS 3 Zrotation Xrotation Yrotation
						JOINT LeftArm
						{
							OFFSET 15.6 -2 3	
							CHANNELS 3 Zrotation Xrotation Yrotation
							JOINT LeftForeArm
							{
								OFFSET 3.5 -27 -1	
								CHANNELS 3 Zrotation Xrotation Yrotation
								JOINT LeftHand
								{
									OFFSET 1 -27 1	
									CHANNELS 3 Zrotation Xrotation Yrotation
									End Site
									{
										OFFSET 0 -15 0
									}
								}
							}
						}
					}
					JOINT RightCollar
					{
						OFFSET 0 10 0	
						CHANNELS 3 Zrotation Xrotation Yrotation
						JOINT RightArm
						{
							OFFSET -15.6 -2 3	
							CHANNELS 3 Zrotation Xrotation Yrotation
							JOINT RightForeArm
							{
								OFFSET -3.5 -27 -1	
								CHANNELS 3 Zrotation Xrotation Yrotation
								JOINT RightHand
								{
									OFFSET -1 -27 1	
									CHANNELS 3 Zrotation Xrotation Yrotation
									End Site
									{
										OFFSET 0 -15 0
									}
								}
							}
						}
					}
					JOINT Neck
					{
						OFFSET 0 10 0	
						CHANNELS 3 Zrotation Xrotation Yrotation
						JOINT Head
						{
							OFFSET 0 12.7 3	
							CHANNELS 3 Zrotation Xrotation Yrotation
							End Site
							{
								OFFSET 0 12.7 3
							}
						}
					}
				}
			}
		}
	}
	JOINT LeftHip
	{
		OFFSET 0 0 0	
		CHANNELS 3 Zrotation Xrotation Yrotation
		JOINT LeftUpLeg
		{
			OFFSET 8.8 -6 0	
			CHANNELS 3 Zrotation Xrotation Yrotation
			JOINT LeftLeg
			{
				OFFSET 0 -39 2	
				CHANNELS 3 Zrotation Xrotation Yrotation
				JOINT LeftFoot
				{
					OFFSET 0 -43 -2	
					CHANNELS 3 Zrotation Xrotation Yrotation
					JOINT LeftFootFront
					{
						OFFSET 0 -7 8.5	
						CHANNELS 3 Zrotation Xrotation Yrotation
						End Site
						{
							OFFSET 0 -0.5 9
						}
					}
				}
				JOINT LeftHeel
				{
					OFFSET 0 -43 -2	
					CHANNELS 3 Zrotation Xrotation Yrotation
					End Site
					{
						OFFSET 0 -7.5 -5
					}
				}
			}
		}
	}
	JOINT RightHip
	{
		OFFSET 0 0 0	
		CHANNELS 3 Zrotation Xrotation Yrotation
		JOINT RightUpLeg
		{
			OFFSET -8.8 -6 0	
			CHANNELS 3 Zrotation Xrotation Yrotation
			JOINT RightLeg
			{
				OFFSET 0 -39 2	
				CHANNELS 3 Zrotation Xrotation Yrotation
				JOINT RightFoot
				{
					OFFSET 0 -43 -2	
					CHANNELS 3 Zrotation Xrotation Yrotation
					JOINT RightFootFront
					{
						OFFSET 0 -7 8.5	
						CHANNELS 3 Zrotation Xrotation Yrotation
						End Site
						{
							OFFSET 0 -0.5 9
						}
					}
				}
				JOINT RightHeel
				{
					OFFSET 0 -43 -2	
					CHANNELS 3 Zrotation Xrotation Yrotation
					End Site
					{
						OFFSET 0 -7.5 -5
					}
				}
			}
		}
	}
}
MOTION
Frames: 8
Frame Time: 0.025
86.319 93.67 82.452 -0 0 -0 -20.479 0.58753 29.325 5.5094 10.756 6.3012 5.5094 10.756 6.3012 4.6993 8.9962 5.3529 -0 0 -0 1.9804 -12.282 -7.9308 -3.5524 -8.2972 -16.296 12.155 -3.654 4.9574 -0 0 -0 -20.89 -13.449 -9.9002 40.25 -44.13 47.28 -0.61313 23.373 -59.121 -17.204 3.3052 -13.648 -17.204 3.3052 -13.648 -20.479 0.58753 29.325 23.167 -31.76 3.5361 -8.3447 5.291 17.026 15.342 -20.545 14.223 0.046563 -0.025528 -0.024655 -0 0 -0 -20.479 0.58753 29.325 15.873 -12.588 -13.445 3.1804 20.782 6.4437 -9.4118 -16.825 -13.672 -0.0083852 -0.10714 0.0001214 -0 0 -0 
85.374 93.61 81.836 -0 0 -0 -20.339 1.0066 27.679 5.4503 10.905 5.9624 5.4503 10.905 5.9624 4.6462 9.124 5.0688 -0 0 -0 1.4827 -12.922 -7.3956 -3.6519 -8.173 -16.04 12.071 -3.8148 5.7583 -0 0 -0 -22.119 -11.956 -10.86 41.299 -45.484 48.78 1.7054 21.207 -57.558 -17.777 2.7562 -12.574 -17.777 2.7562 -12.574 -20.339 1.0066 27.679 24.374 -31.552 3.7106 -8.194 4.3991 18.021 14.685 -18.814 15.376 0.034131 -0.019062 0.024831 -0 0 -0 -20.339 1.0066 27.679 16.3 -13.264 -11.587 3.3222 20.425 6.3208 -9.8427 -16.024 -13.498 -0.0074441 -0.071487 0.038855 -0 0 -0 
84.486 93.545 81.218 -0 0 -0 -20.166 1.5122 26.098 5.3167 10.971 5.6325 5.3167 10.971 5.6325 4.5302 9.1824 4.7908 -0 0 -0 1.1333 -13.44 -7.0695 -3.7153 -8.1612 -15.716 11.993 -3.9032 6.2466 -0 0 -0 -23.242 -10.43 -11.954 42.195 -46.864 50.09 4.2769 18.672 -55.995 -18.259 2.3081 -11.506 -18.259 2.3081 -11.506 -20.166 1.5122 26.098 25.685 -31.489 3.7153 -8.4093 3.8506 19.23 14.114 -17.345 16.665 -0.0052152 -0.045543 0.01192 -0 0 -0 -20.166 1.5122 26.098 16.583 -14.006 -9.608 3.5846 20.125 5.8635 -10.115 -15.168 -13.159 -0.019869 -0.040161 0.019246 -0 0 -0 
83.666 93.476 80.61 -0 0 -0 -19.958 2.0816 24.702 5.1284 10.965 5.28 5.1284 10.965 5.28 4.3677 9.1805 4.4928 -0 0 -0 0.97469 -13.829 -6.9627 -3.7875 -8.3815 -15.382 11.939 -3.8427 6.518 -0 0 -0 -24.319 -8.8683 -13.21 43.216 -48.225 51.467 6.981 16.116 -54.659 -18.607 1.9406 -10.479 -18.607 1.9406 -10.479 -19.958 2.0816 24.702 26.985 -31.634 3.7085 -8.949 3.8207 20.416 13.582 -16.345 17.949 0.019555 0.0074979 0.047819 -0 0 -0 -19.958 2.0816 24.702 16.784 -14.71 -7.9876 3.7156 19.711 5.4717 -10.203 -14.265 -12.676 -0.0087635 -0.021635 0.018673 -0 0 -0 
82.922 93.405 80.026 -0 0 -0 -19.756 2.676 23.523 4.9097 10.91 4.92 4.9097 10.91 4.92 4.1794 9.137 4.1879 -0 0 -0 1.012 -14.124 -7.1183 -3.8052 -8.8172 -15.256 11.847 -3.6522 6.8783 -0 0 -0 -25.367 -7.2946 -14.662 44.387 -49.475 53.034 9.7753 13.794 -53.824 -18.812 1.6304 -9.5246 -18.812 1.6304 -9.5246 -19.756 2.676 23.523 28.155 -31.973 3.7918 -9.6886 4.5157 21.385 13.052 -16.042 19.229 0.030957 0.06983 0.086566 -0 0 -0 -19.756 2.676 23.523 16.99 -15.334 -6.8573 3.6338 19.103 5.1945 -10.115 -13.321 -11.974 0.012649 -0.0094341 0.026424 -0 0 -0 
82.257 93.334 79.48 -0 0 -0 -19.576 3.2843 22.502 4.6281 10.805 4.6054 4.6281 10.805 4.6054 3.9389 9.0525 3.9201 -0 0 -0 1.3127 -14.348 -7.5473 -3.6324 -9.3466 -15.533 11.618 -3.4327 7.5382 -0 0 -0 -26.197 -5.6902 -16.253 45.449 -50.387 54.586 12.48 11.765 -53.518 -18.845 1.3809 -8.6409 -18.845 1.3809 -8.6409 -19.576 3.2843 22.502 29.076 -32.411 3.9412 -10.526 6.211 21.862 12.5 -16.683 20.864 -0.00018083 -0.011992 0.026122 -0 0 -0 -19.576 3.2843 22.502 17.209 -15.875 -6.2084 3.3767 18.338 5.1754 -9.948 -12.352 -11.173 0.019299 -0.0031166 0.018776 -0 0 -0 
81.673 93.266 78.981 -0 0 -0 -19.374 3.8586 21.584 4.2489 10.663 4.3577 4.249 10.663 4.3577 3.6172 8.936 3.707 -0 0 -0 1.9129 -14.499 -8.1779 -3.2108 -9.875 -16.219 11.213 -3.3071 8.3983 -0 0 -0 -26.695 -4.013 -18.008 46.44 -50.527 56.277 14.716 10.034 -53.672 -18.682 1.1917 -7.8033 -18.682 1.1917 -7.8033 -19.374 3.8586 21.584 29.651 -32.798 4.0948 -11.446 9.1282 21.869 11.911 -18.585 22.837 -0.020088 -0.048787 0.08187 -0 0 -0 -19.374 3.8586 21.584 17.385 -16.253 -6.0039 3.0219 17.493 5.5514 -9.7983 -11.409 -10.455 0.019963 -0.0083706 0.0064305 -0 0 -0 
81.166 93.203 78.536 -0 0 -0 -19.093 4.3226 20.748 3.7895 10.518 4.1416 3.7895 10.518 4.1416 3.2287 8.8179 3.5195 -0 0 -0 2.7245 -14.574 -8.8465 -2.5813 -10.408 -17.184 10.67 -3.3697 9.124 -0 0 -0 -26.998 -2.3122 -19.935 47.535 -49.544 58.447 16.138 8.5256 -54.163 -18.375 1.0401 -6.9854 -18.375 1.0401 -6.9854 -19.093 4.3226 20.748 29.876 -32.991 4.148 -12.457 13.003 21.893 11.241 -21.617 24.63 -0.013993 0.013967 0.20742 -0 0 -0 -19.093 4.3226 20.748 17.473 -16.37 -6.0808 2.658 16.614 6.1769 -9.6964 -10.547 -9.8725 0.019175 -0.017807 0.00057891 -0 0 -0 
